<svg id="Layer_1" data-name="Layer 1" xmlns="http://www.w3.org/2000/svg" xmlns:xlink="http://www.w3.org/1999/xlink" viewBox="0 0 464.2 346.9"><defs><style>.cls-1,.cls-10,.cls-8{fill:none;}.cls-2{clip-path:url(#clip-path);}.cls-3{fill:#e6e7e8;}.cls-4{fill:#00aeef;}.cls-5{fill:#e5e4e5;}.cls-6{font-size:12px;}.cls-11,.cls-6,.cls-7,.cls-9{fill:#231f20;}.cls-6,.cls-7{font-family:OpenSans-Bold, Open Sans;font-weight:700;}.cls-7{font-size:9px;}.cls-8{stroke:#231f20;stroke-width:2px;}.cls-10{stroke:#fde9f1;}.cls-11{font-size:17px;font-family:OpenSans, Open Sans;}</style><clipPath id="clip-path" transform="translate(-81.46 -10.12)"><rect class="cls-1" y="1.05" width="595.28" height="619.89"/></clipPath></defs><g class="cls-2"><path class="cls-3" d="M198.22,109a37.9,37.9,0,1,0-37.9-37.9,37.9,37.9,0,0,0,37.9,37.9" transform="translate(-81.46 -10.12)"/><path class="cls-3" d="M475.09,205.13a37.9,37.9,0,1,0-37.9-37.9,37.9,37.9,0,0,0,37.9,37.9" transform="translate(-81.46 -10.12)"/><path class="cls-3" d="M344.7,109a37.9,37.9,0,1,0-37.9-37.9A37.9,37.9,0,0,0,344.7,109" transform="translate(-81.46 -10.12)"/><path class="cls-3" d="M215.23,205.13a37.9,37.9,0,1,0-37.9-37.9,37.9,37.9,0,0,0,37.9,37.9" transform="translate(-81.46 -10.12)"/><path class="cls-3" d="M422.92,357a37.9,37.9,0,1,0-37.9-37.9,37.9,37.9,0,0,0,37.9,37.9" transform="translate(-81.46 -10.12)"/><path class="cls-4" d="M336.08,64.46a9.26,9.26,0,0,0-.63-.72,3.32,3.32,0,0,0-4.19-.49,3.49,3.49,0,0,0-1.49,4.36.55.55,0,0,1-.17.76q-2.16,1.86-4.3,3.74c-.48.41-.68.42-1.12,0q-3.84-4.09-7.68-8.23c-.4-.43-.38-.73.05-1.13,1.27-1.17,2.54-2.34,3.83-3.48a1.24,1.24,0,0,1,.76-.25c.73,0,1.46.07,2.2.08a1.87,1.87,0,0,0,2.16-2,13.74,13.74,0,0,1,.1-1.44,2,2,0,0,1,.43-1c2.45-2.39,4.88-4.8,7.43-7.08a14,14,0,0,1,8-3.29,13.47,13.47,0,0,1,7.88,1.49,1.21,1.21,0,0,1,.54.58.74.74,0,0,1-.74,1,13.4,13.4,0,0,0-4.18,1,8,8,0,0,0-4.29,10.86c.34.8.34.8-.31,1.41l-3.95,3.66c-.08.07-.15.14-.33.28" transform="translate(-81.46 -10.12)"/><path class="cls-4" d="M338.5,66.77l4.75-4.34.35.33,20.28,20c1.21,1.19,2.43,2.36,3.63,3.55a5.51,5.51,0,0,1,1.7,4.88,4,4,0,0,1-4.41,3.56,5.86,5.86,0,0,1-4.25-2.09q-8.4-9.78-16.81-19.57c-1.72-2-3.39-4-5.09-6.08l-.15-.2" transform="translate(-81.46 -10.12)"/><path class="cls-3" d="M344.7,245.77a37.9,37.9,0,1,0-37.9-37.9,37.9,37.9,0,0,0,37.9,37.9" transform="translate(-81.46 -10.12)"/><path class="cls-4" d="M192.71,156.67a11.82,11.82,0,1,0,11.78-11.46,11.65,11.65,0,0,0-11.78,11.46M236,191.61a5.94,5.94,0,0,1-2.65-1.75L218.4,175.35c-.9-.86-.9-1.19,0-2a4.81,4.81,0,0,1,.51-.39c-1-.95-1.93-1.8-2.78-2.72-.63-.67-1.16-1.06-2.17-.58a2.73,2.73,0,0,1-2.6-.25.73.73,0,0,0-.57.06,15,15,0,0,1-6.64,1.36,14.43,14.43,0,0,1-13.75-10.7,14,14,0,0,1,10.16-17,14.43,14.43,0,0,1,13,2.54,13.9,13.9,0,0,1,4.06,17.22.56.56,0,0,0,0,.47,3.14,3.14,0,0,1,0,3.2.54.54,0,0,0,.14.74c1.14,1.09,2.26,2.19,3.48,3.38.21-.23.38-.46.59-.66.65-.63,1.1-.63,1.76,0q5.9,5.73,11.8,11.45c1.26,1.22,2.5,2.46,3.77,3.66a4.65,4.65,0,0,1,1.35,2.12v1.15a9.63,9.63,0,0,1-.7,1.4,4.74,4.74,0,0,1-2.66,1.86Z" transform="translate(-81.46 -10.12)"/><path class="cls-4" d="M237.16,191.61a4.74,4.74,0,0,0,2.66-1.86,9.63,9.63,0,0,0,.7-1.4v3.26Z" transform="translate(-81.46 -10.12)"/><path class="cls-4" d="M481,158.87a8.08,8.08,0,0,0-7.79,1.31,16,16,0,0,0-2.15,2.21,3.32,3.32,0,0,1-4.85.39,2.15,2.15,0,0,1-.45-3c2.64-3.65,6.05-6.25,10.79-6.89a15.12,15.12,0,0,1,8.44,1.4c1.42.66,2.78,1.43,4.16,2.17a12.12,12.12,0,0,0,4.92,1.58,8.09,8.09,0,0,0,6.46-2.5,13.91,13.91,0,0,0,1.29-1.49,3.33,3.33,0,0,1,5.19.06,2,2,0,0,1,.08,2.58c-3.32,4.54-7.64,7.34-13.71,7a14.87,14.87,0,0,1-1.63-.23c-.53-.09-1-.22-1.65-.36l-5.71,10,.44.25A49.47,49.47,0,0,1,492,178a9.22,9.22,0,0,1,2.42,3.23c1.32,2.54,2.61,5.1,3.85,7.68.79,1.64-.26,3.36-2.18,3.76a2.79,2.79,0,0,1-3.3-1.6c-.91-1.84-1.78-3.7-2.71-5.53-1.64-3.21-1.78-3.35-4.88-5.34a31.55,31.55,0,0,0-6.66-3.43.5.5,0,0,0-.66.15,15.14,15.14,0,0,1-9.53,5,14.7,14.7,0,0,1-9.37-1.78,2.68,2.68,0,0,1-1.21-3.81,3.2,3.2,0,0,1,4.16-1.37,16.5,16.5,0,0,0,2.49,1,7.8,7.8,0,0,0,6.27-1.3,13.21,13.21,0,0,0,4.46-5c1.52-2.85,3.07-5.69,4.62-8.54.39-.71.82-1.4,1.27-2.17" transform="translate(-81.46 -10.12)"/><path class="cls-4" d="M486.19,150.07a5.91,5.91,0,1,1,5.94,5.6,5.8,5.8,0,0,1-5.94-5.6" transform="translate(-81.46 -10.12)"/><path class="cls-4" d="M467.93,149.22h-2.17c-.93,0-1.46-.37-1.46-1s.53-1,1.45-1c7.33,0,5.88,0,13.21,0a2.58,2.58,0,0,1,.68.07,1,1,0,0,1,.73,1,1,1,0,0,1-.8.95,2.76,2.76,0,0,1-.64.05h-11" transform="translate(-81.46 -10.12)"/><path class="cls-4" d="M454.83,168.9H466c.72,0,1.15.33,1.22.89a1,1,0,0,1-1,1.16,3.49,3.49,0,0,1-.46,0h-13.2a2.46,2.46,0,0,1-.77-.09,1,1,0,0,1-.65-1.05,1.05,1.05,0,0,1,.94-.89,5.06,5.06,0,0,1,.55,0h2.17" transform="translate(-81.46 -10.12)"/><path class="cls-4" d="M447.6,159.3h-2.3a1.18,1.18,0,0,1-1.22-.61,1,1,0,0,1,.88-1.44h13.8c.75,0,1.19.3,1.28.86a1,1,0,0,1-.94,1.18H447.6" transform="translate(-81.46 -10.12)"/><path class="cls-4" d="M445.16,184h-1.29c-.91,0-1.49-.78-1.06-1.46a2.1,2.1,0,0,1,.81-.56c.1-.06.24,0,.37,0h11.17c.73,0,1.18.3,1.27.83a1,1,0,0,1-1,1.21c-.26,0-.52,0-.78,0h-9.52" transform="translate(-81.46 -10.12)"/><path class="cls-5" d="M460.84,52.06l3.66,1.09a5.77,5.77,0,0,1,0,.72c-1.14-.75-3.93,1.78-3.64-1.81" transform="translate(-81.46 -10.12)"/><path class="cls-4" d="M371.93,190.48c-.68,1.69-1.3,3.4-2,5.32a29.41,29.41,0,0,0-5.29-3.37c-.53-.23-.71-.52-.49-1.06.68-1.63,1.38-3.26,2-4.92.28-.78.64-.6,1.18-.33a28,28,0,0,1,4.4,2.88c.61.47.48.9.25,1.48m-9.88,3c-.89,2-1.66,4-2.47,6-.21.5-.37,1-1.12.66a23.69,23.69,0,0,0-8.19-1.17c1-2.42,1.89-4.68,2.79-6.95.22-.57.61-.72,1.22-.75a20.84,20.84,0,0,1,7,.91c.72.22,1.15.38.75,1.27M355,184.44c-.84,2-1.57,3.75-2.27,5.49a1,1,0,0,1-.9.71,18,18,0,0,1-7.77-.24c-.75-.21-.79-.41-.52-1.05.69-1.57,1.29-3.18,1.89-4.78.18-.47.34-.91,1-.7,2.71.9,5.51.71,8.6.57m-13.57,7.14c-.83,2.06-1.66,4.13-2.44,6.21-.29.78-.71.72-1.29.39-.41-.23-.84-.43-1.25-.66-4.43-2.55-4.62-3.05-2.79-7.58.48-1.2,1-2.4,1.53-3.69a20.59,20.59,0,0,0,5.82,4.08c.64.28.65.69.42,1.25m-4.53,14.49a7.75,7.75,0,0,0,.33-.79c.63-1.59.84-3.59,2-4.67s3.23.4,4.95.26c1.34-.11,2.69-.15,4.17-.23-.85,2.06-1.69,4-2.45,6a1.39,1.39,0,0,1-1.26,1,17.75,17.75,0,0,1-6.89-.07c-.88-.17-1.43-.45-.85-1.41m20.6,1.73c.78-1.65,1.41-3.37,2-5.08.26-.68.5-.87,1.26-.48a32.69,32.69,0,0,1,4.57,2.95,1.12,1.12,0,0,1,.41,1.49c-.83,2.06-1.65,4.13-2.54,6.37a24.42,24.42,0,0,0-5.13-3.66c-.77-.39-1-.72-.62-1.59m16.1-20a22.38,22.38,0,0,0-19.07-5.49c-6,.94-11.17-.78-15.17-5.29-1.56-1.77-2-1.73-2.91.41q-5.69,14-11.37,28c-2.72,6.67-5.48,13.32-8.22,20v1a1.11,1.11,0,0,0,1.44.41c.67-.29.83-.92,1.06-1.5q2-4.84,3.94-9.7c1.53-3.74,3.07-7.48,4.64-11.31l.69.56a18.16,18.16,0,0,0,16.2,4.73c6.84-1.29,12.53.75,17.26,5.51,1.67,1.68,2.14,1.62,3-.53,3.09-7.94,6.13-15.9,9.28-23.81a2.3,2.3,0,0,0-.74-3" transform="translate(-81.46 -10.12)"/></g><text class="cls-6" transform="translate(301.44 45.33)">Build model </text><text class="cls-6" transform="translate(376.1 45.33)"> </text><text class="cls-6" transform="translate(301.44 59.73)"><tspan xml:space="preserve"> for {x}</tspan></text><text class="cls-6" transform="translate(22.15 51.17)">Starting </text><text class="cls-6" transform="translate(70.2 51.17)"> </text><text class="cls-6" transform="translate(0.08 65.57)">parameters </text><text class="cls-6" transform="translate(70.2 65.57)"> </text><text class="cls-6" transform="translate(0 79.97)">and bounds</text><text class="cls-6" transform="translate(433.57 179.37)">Run </text><text class="cls-6" transform="translate(426.64 193.77)">model</text><text class="cls-6" transform="translate(378.36 290.35)"><tspan xml:space="preserve">  Assess </tspan></text><text class="cls-6" transform="translate(426.94 290.35)"> </text><text class="cls-6" transform="translate(378.36 304.75)"><tspan xml:space="preserve">  objective </tspan></text><text class="cls-6" transform="translate(442.45 304.75)"> </text><text class="cls-6" transform="translate(378.36 319.15)"><tspan xml:space="preserve">  function at</tspan></text><text class="cls-6" transform="translate(378.36 333.55)"><tspan xml:space="preserve">  {x}</tspan></text><text class="cls-6" transform="translate(246.48 155.56)">Finish</text><text class="cls-6" transform="translate(50.22 151.98)">Choose </text><text class="cls-6" transform="translate(53.57 166.38)">{x</text><text class="cls-7" transform="translate(65.24 171.38)">next</text><text class="cls-6" transform="translate(85.58 166.38)">}</text><text class="cls-6" transform="translate(154.26 274.9)">no</text><text class="cls-6" transform="translate(232.9 273.85)">yes</text><g class="cls-2"><path class="cls-4" d="M449,329.06v0l-.15-.51a.24.24,0,0,0,0-.08l-.15-.53a.49.49,0,0,1,0-.11c-.05-.18-.11-.36-.16-.54l0-.05c0-.17-.1-.33-.16-.5l0-.1-.18-.51a.36.36,0,0,0,0-.11c-.06-.18-.12-.36-.19-.53v0c-.06-.17-.13-.34-.2-.51l0-.11-.21-.51,0,0a33.81,33.81,0,0,0,7.46-1.73,10.79,10.79,0,0,1,.57,4.09V327a41.11,41.11,0,0,1-6.4,2.07m-6.13.53,0-.06-.35-.59-.06-.1-.33-.59,0,0-.33-.61-.06-.11-.31-.59-.06-.11-.3-.6h0l-.3-.6a.31.31,0,0,0-.05-.1l-.27-.57a.47.47,0,0,0,0-.1c-.09-.19-.17-.38-.26-.56h0c1.92.1,4.06.18,6.24.08v0c.08.18.15.35.23.52s0,.07,0,.11l.21.51a.42.42,0,0,0,0,.1c.06.18.13.36.2.54v0l.18.54,0,.09.18.53,0,.11c.06.18.11.36.17.53s0,.06,0,.09.11.36.16.54v0c.06.19.11.38.17.57a.06.06,0,0,0,0,0,30.87,30.87,0,0,1-5.15.35m-6.35-.53-.9-.09-.19-.13-.11-.08-.27-.21-.06,0-.32-.27a.46.46,0,0,0-.07-.07l-.23-.22-.1-.1-.18-.19-.11-.13-.17-.19-.11-.12-.16-.2a1.13,1.13,0,0,0-.1-.13l-.15-.21a1.47,1.47,0,0,1-.1-.13l-.16-.23-.08-.11-.22-.34h0c-.07-.12-.15-.24-.22-.37a.41.41,0,0,1-.07-.11l-.15-.26-.09-.14-.13-.23a1.19,1.19,0,0,1-.08-.16,2.53,2.53,0,0,1-.13-.22l-.09-.17,0-.09c2.24-.09,4.62-.06,7.24.09l0,0,.24.52.06.12c.08.19.17.38.26.57l0,.05c.08.18.18.37.27.56l0,.09c.1.19.19.39.29.59l.06.11c.1.2.2.4.31.6l0,.06.31.59,0,.08.34.61.06.12.35.6,0,0c-1.73-.11-3.47-.29-5.17-.48m-11.75.15a21.83,21.83,0,0,1-2.62-3.95,18.81,18.81,0,0,1,8.46-1.13l.06.12.06.11.18.33,0,.07.21.38a.41.41,0,0,1,0,.09c.06.1.11.2.17.29l.06.12c.06.1.12.2.19.3a.25.25,0,0,0,0,.07l.23.37.05.08.18.28a1,1,0,0,1,.08.11l.19.27.06.08.25.33.07.08c.06.09.13.17.2.26l.09.1.22.24.07.08.29.3.07.07.16.16a32.58,32.58,0,0,0-9.1.39m-6.23,2.23-.09-.1-.12-.15-.25-.29-.12-.13c-.12-.14-.24-.28-.37-.41h0l-.38-.4-.11-.12-.28-.29-.13-.13-.3-.29-.11-.1-.39-.37c.86-.45,1.7-.94,2.52-1.41s1.84-1.06,2.79-1.54a23.32,23.32,0,0,0,2.48,3.8,46.79,46.79,0,0,0-5.14,1.94M409.72,330a10.23,10.23,0,0,0,5.18-.9l.12.11.15.13.29.27.11.11.39.38.06.06c.11.1.21.21.32.32l.12.13.26.27.12.14.27.3.09.1.33.39a18.48,18.48,0,0,1-5.49,1.1,11.11,11.11,0,0,0-2.32-2.91m-4.23-2.65a10.69,10.69,0,0,0,5.94-1.48l.05.05.13.13.22.23.14.14.21.21.15.14.22.21.14.13.25.23.12.11.32.29,0,0,.37.33.17.15.14.13a10.06,10.06,0,0,1-6,.43l-1.37-.78-1.22-.69m-5.19-5.13a10.06,10.06,0,0,0,8.37-.48l0,.05c.06.14.13.28.2.42l0,0c.06.13.13.25.19.37a.56.56,0,0,0,0,.08l.21.39,0,.07.21.34,0,.05.23.37.06.07c.16.24.33.48.5.71l.06.07.26.33,0,0a9.3,9.3,0,0,1-7.41.9,10,10,0,0,1-3.06-3.8m4.22-6.07.07,0,.13.09.18.13.13.1.17.14.12.1.17.15.12.1.17.16.1.1.19.2.07.08.26.28.05.06.19.24.09.11.15.2.09.13.14.19.09.15a2.14,2.14,0,0,1,.13.19l.1.15.12.21.09.16.12.22.09.16.12.24a1.09,1.09,0,0,1,.08.15c.05.09.09.19.13.28a.61.61,0,0,1,.07.14v0a9.09,9.09,0,0,1-8.54.07,14.54,14.54,0,0,0-2.49-4.18,14,14,0,0,0,7.29-.58m-11.37-2.59a27.17,27.17,0,0,0,6.58-.46l.12.09.19.14.23.17.18.13.24.16.18.12.25.16.18.12.26.16.17.11.27.17.16.09.31.18.12.08.42.25.41.24a13,13,0,0,1-7.61-.06c-.4-.3-.83-.58-1.24-.86s-1-.64-1.42-1M397,307v.09a.09.09,0,0,0,0,.05c0,.13,0,.26,0,.39v.05s0,.09,0,.14a.17.17,0,0,0,0,.07s0,.09,0,.13a.13.13,0,0,1,0,.06,1,1,0,0,1,0,.16.08.08,0,0,1,0,0l0,.19v.06a.59.59,0,0,1,0,.14l0,.07a.69.69,0,0,0,0,.13.64.64,0,0,1,0,.07l0,.14V309c0,.07,0,.13,0,.19v0s0,.11,0,.16,0,0,0,.06l0,.13,0,.07a.74.74,0,0,0,0,.14s0,0,0,.06.05.12.07.19h0a1.34,1.34,0,0,0,.07.18.14.14,0,0,0,0,.06l.05.13,0,.07,0,.12,0,.07.07.15,0,0,.09.19,0,0a.83.83,0,0,0,.07.13l0,.07a.75.75,0,0,1,.07.12l0,.06.08.13,0,0,.12.17,0,0,.1.14,0,.06.1.11,0,.06,0,0a27.67,27.67,0,0,1-6.9.26,6.61,6.61,0,0,1-1.47-4.37A53,53,0,0,1,397,307m6.65-.07a5.54,5.54,0,0,0,1.8,3.9c-.87.19-1.75.4-2.6.61s-1.92.46-2.88.67l-.09-.09,0,0-.14-.15,0,0-.11-.13,0-.05-.08-.1,0-.06a.61.61,0,0,1-.07-.1l-.05-.06-.06-.1-.05-.07-.06-.09a.16.16,0,0,0,0-.07l-.06-.1,0-.06s0-.09-.07-.13l0,0a1.3,1.3,0,0,1-.08-.17l0,0-.06-.14,0-.06,0-.11,0-.07,0-.11,0-.07a.49.49,0,0,0,0-.11.25.25,0,0,0,0-.07.76.76,0,0,0,0-.11.25.25,0,0,0,0-.07l0-.11s0,0,0-.06,0-.1,0-.14,0,0,0,0,0-.13,0-.19v0a.83.83,0,0,0,0-.15.13.13,0,0,0,0-.06l0-.12a.64.64,0,0,0,0-.07.5.5,0,0,0,0-.12s0-.05,0-.07l0-.11s0,0,0-.08,0-.07,0-.11,0,0,0-.07,0-.08,0-.12v-.07s0-.09,0-.13v-.05c0-.07,0-.13,0-.19v-.05a.53.53,0,0,0,0-.13.19.19,0,0,0,0-.08.41.41,0,0,0,0-.11v-.09a.13.13,0,0,1,0-.06,46.38,46.38,0,0,1,5.65,0m7.83,1v0s0,.06,0,.09v.2s0,.06,0,.09v0a.43.43,0,0,0,0,.11h0c0,.13.05.26.08.39v0l0,.1v.05l0,.1,0,0,0,.1v.05l0,.09v.05a.42.42,0,0,1,0,.1l0,0,0,.1v0c.06.13.13.25.2.37h-.45a26.53,26.53,0,0,0-4.71.34c-1.58-.48-2-2-2.26-3.48,2.3.24,4.59.59,6.76.94m8.08.51v0l0,.14a.13.13,0,0,1,0,.06s0,.07,0,.1a.15.15,0,0,0,0,.07s0,.07,0,.1V309a13.54,13.54,0,0,0-2.06.22l-.19,0h0a17.23,17.23,0,0,0-3.35,1l-.27,0h0l-.14-.06h0l-.13-.08h0l-.12-.09h0l-.11-.1h0a2.35,2.35,0,0,1-.19-.25h0l-.08-.14v0c0-.05-.05-.1-.07-.16h0l-.06-.17h0c0-.06,0-.12,0-.18v0a1.21,1.21,0,0,1-.05-.18v0c0-.06,0-.13,0-.2h0c0-.06,0-.14-.05-.21v0l0-.18a44.77,44.77,0,0,0,7,.36m17.59,3.72c-1.4.2-2.74.32-4,.38l-.84-.52a16.43,16.43,0,0,0-3.24-1.56,1.05,1.05,0,0,1-.05-.19s0-.06,0-.1l-.06-.25,0-.13a2,2,0,0,1,0-.24l0-.14,0-.22c0-.05,0-.1,0-.14l0-.23s0-.09,0-.14l0-.22s0-.1,0-.15a1.64,1.64,0,0,1,0-.23.57.57,0,0,1,0-.13,2.28,2.28,0,0,1,0-.26s0-.07,0-.1,0-.24,0-.35c2.71-.56,5.4-1.19,8-1.81a41.86,41.86,0,0,0,.51,6.73m17,9.56a30.86,30.86,0,0,1-7.31,1.62l0-.06-.11-.21-.06-.11-.11-.19-.06-.11-.13-.22-.05-.08-.18-.3,0-.06-.15-.23a.86.86,0,0,0-.07-.1c-.05-.07-.09-.14-.14-.2l-.07-.11-.16-.21-.06-.08,0-.05c.42,0,.87.06,1.36.07h.07l.49,0a21.56,21.56,0,0,0,4.87-.16,3,3,0,0,1,2,.83m-17.73-6.66c-.68-.53-1.37-1.08-2.08-1.62,1-.07,2-.18,3-.32a15.18,15.18,0,0,0,1.43,3.78c-.8-.6-1.59-1.23-2.36-1.84m-6.56-3.1h-.31l-.06-.13a.78.78,0,0,1,0-.14l0-.06.84.37-.39,0m-15.67-.65h.06l.21,0h.28c1.55.2,3.1.44,4.66.7-.74.53-1.43,1.1-2.08,1.64a6.18,6.18,0,0,0-3.33-2.33l.1,0h.1m14-.11,0,.06.09.27,0,0c0,.08.05.16.09.25l0,.05s0,0,0,.05h-1l-.83-.5-.06-.11-.05-.09c-.07-.15-.14-.29-.22-.43h0a13.15,13.15,0,0,1,1.87.39h0m9.17,5.9-.32-.07-.13,0-.37-.08-.23-.41a.25.25,0,0,1,0-.07c-.09-.14-.17-.28-.25-.42v0l1.42,1.11h-.07m-16.58-4.83,1.39.24a1.06,1.06,0,0,0,.25.09l0,0,.29.08h0l.3.07h0l.31,0h0l.33.05h0l.33,0h0l.31,0h.38l1.45.21s0,0,0,0,0,.09.05.13l.06.16,0,.13.06.16,0,.13.06.17a.56.56,0,0,1,0,.12l.06.18a.49.49,0,0,1,0,.11,1.59,1.59,0,0,1,.07.2l0,.09c0,.1.07.19.1.29s.1.28.14.43a16.49,16.49,0,0,0-7.95,3.14c-.53-1.46-1-2.81-1.38-4.09a31.33,31.33,0,0,1,3-2.29m4.9-.26h-.66c-.81-.12-1.66-.26-2.58-.42l-.05,0-.06,0-.08-.05,0,0h0a8.81,8.81,0,0,1,1.37-.53c.69.3,1.39.65,2.13,1.06m7.33,1.7.08.07.17.17.05.05.22.22.05.06.16.18.07.08a2.09,2.09,0,0,0,.14.17l.06.07.18.25,0,0,.17.23a.35.35,0,0,0,.05.08l.13.18a.22.22,0,0,0,.05.08l.14.21,0,.05.16.26a.56.56,0,0,1,.05.08l.11.18.06.09,0,.05-.13,0h0l-.41-.14-.13-.05-.3-.11-.13-.06-.36-.15,0,0q-.78-.47-1.56-1l0,0-.13-.09-.05,0-.18-.14h0l-.16-.14s0,0-.05-.05l-.12-.1-.06-.05a.47.47,0,0,0-.1-.1l-.06-.06-.1-.1-.05-.05-.15-.16h0l-.15-.17,0-.05-.1-.12,0,0c.74,0,1.49,0,2.25,0l0,0,.17.15m-5.26.55-.15-.44,0-.08c-.05-.15-.1-.29-.16-.44h0l.43,0,1,.67c.85.58,1.72,1.16,2.61,1.72a26.37,26.37,0,0,0-3.3-.27l0-.09-.2-.57-.14-.44a1,1,0,0,1,0-.1m-6.45-3.54-.06-.08h0l-.06-.1,0,0,0-.07,0,0,0-.07a.08.08,0,0,1,0,0l0-.07,0,0,0-.07,0,0c.41.11.82.24,1.22.38-.27.11-.53.24-.8.37,0,0,0,0,0,0l0,0m-2.84-.13h0l.72-.22.35-.1.12,0,.22-.07,0,0a.64.64,0,0,0,0,.07.49.49,0,0,1,0,.11l0,.06a1.17,1.17,0,0,0,.05.11l0,.06.08.16v0c0,.05.05.09.07.14l0,.06.06.1,0,.06.06.09,0,0-.43-.07h0l-.58-.1-1.75-.29h0l.72-.2m10.16,9.1.05.12c.09.24.18.49.28.73,0,0,0,.09.05.13l.3.76,0,.05c.1.25.2.49.31.74l0,.09.33.74,0,.07a19.71,19.71,0,0,0-8.43,1.27c-.72-1.48-1.41-3.05-2.08-4.78a15.68,15.68,0,0,1,7.93-3.15v0l.26.72a.56.56,0,0,0,0,.12c.09.24.17.49.26.74l0,.08c.09.25.18.5.28.75v0c.09.25.18.5.28.76m7.7-1,.15.29.16.34a2.59,2.59,0,0,1,.14.29c.06.11.11.23.16.34l.14.29c.05.12.11.23.16.35s.09.19.13.29.11.23.16.34l.13.3.16.35.12.28c.09.21.19.42.28.62s.13.31.2.46c-1.46-.07-2.84-.11-4.17-.11-1.07,0-2.1,0-3.11.07a.08.08,0,0,1,0,0c-.12-.25-.23-.49-.33-.74l-.06-.12-.32-.75,0-.08-.3-.74,0-.07c-.1-.25-.2-.5-.29-.75l-.06-.13-.27-.73-.05-.14-.27-.72a.49.49,0,0,0,0-.11c-.08-.23-.16-.46-.25-.69l0-.09c-.08-.24-.16-.47-.25-.71l0-.08a25.23,25.23,0,0,1,5.66.83c.64.3,1.25.55,1.86.77.05.09.09.17.13.26a3.59,3.59,0,0,1,.17.34m-13-9h0a2.62,2.62,0,0,1,.57.12h0l.16.06h0c-.17,0-.34.06-.5.09l-.81-.31a4.93,4.93,0,0,1,.55,0M444.11,321a1.59,1.59,0,0,0,.13.13l.06.08.12.14.06.07.16.2h0l.16.22.05.07.11.15a.35.35,0,0,0,0,.08,1.3,1.3,0,0,1,.1.15l.05.07.12.19,0,0,.14.22,0,.06.09.17.05.07.09.16a.25.25,0,0,0,0,.07l0,0c-2.17.07-4.31,0-6.21-.14l-.39-.89-.39-.88-.09-.2-.42-.94-.06-.11c-.12-.28-.25-.57-.39-.85l-.07-.16c-.13-.26-.25-.52-.38-.77.41.1.82.2,1.23.27.88.32,1.77.65,2.67,1a8.14,8.14,0,0,0,2.62,1.09l.15.15.06.07m-16.45-13.55c0,.09,0,.18,0,.27v.07l0,.24v.05l0,.27v.07l0,.28h0l0,.27v.07c0,.09,0,.18,0,.28v0l0,.25v.06a2.56,2.56,0,0,1,.05.27.13.13,0,0,1,0,.06l0,.12a15.2,15.2,0,0,0-2.29-.37l-.07-.07-.05-.06-.09-.08-.05,0-.11-.1,0,0-.14-.11h0l-.12-.08-.05,0-.1-.06-.06,0-.09-.05-.07,0-.09,0-.07,0-.09,0-.07,0-.09,0-.07,0-.09,0H424l-.1,0-.07,0h-2l-.11,0h-.06l-.11,0h-.06l-.1,0h-.07l-.1,0h-.07l-.08,0h-.14l-.19,0h0s0-.06,0-.09a.43.43,0,0,0,0-.05s0-.07,0-.1v-.05s0-.07,0-.11v0l0-.16a64.19,64.19,0,0,0,7.07-.95v0m-24.49,6.77-.13-.08-.29-.17-.13-.07-.37-.23h0l-.37-.24-.12-.07-.27-.18-.12-.08-.36-.25h0l2.2-.53c1.23-.29,2.51-.6,3.77-.86a26.8,26.8,0,0,0,3.84.46l-.61.33a58,58,0,0,1-5.56,2.84l-.3-.18-.2-.12-.57-.34-.38-.22m5,4.41,0-.05c-.06-.09-.11-.18-.17-.26l0,0-.18-.26,0-.06-.19-.25,0,0-.18-.22,0,0a2.2,2.2,0,0,0-.2-.23l0-.06-.21-.22,0,0-.2-.2,0-.05-.22-.2-.05-.05-.21-.19,0,0-.24-.2-.05,0-.24-.19h0c1.79-.8,3.5-1.75,5.16-2.68l1.83-1a5.43,5.43,0,0,1,4,2.31l-1.11,1a51.68,51.68,0,0,1-6.31,5l0,0A2.92,2.92,0,0,0,409,320l0,0-.16-.32,0-.06c-.05-.11-.11-.21-.16-.31l0,0-.16-.29,0-.06a2.61,2.61,0,0,1-.17-.28m3.12,5.63,0-.05a2.43,2.43,0,0,1-.24-.32l0,0a3.53,3.53,0,0,1-.24-.34l0-.07c-.08-.12-.16-.24-.23-.36l0-.05-.21-.35,0-.05-.21-.38,0-.09-.2-.39,0,0c-.07-.13-.13-.26-.19-.39l0-.05a50.26,50.26,0,0,0,6.6-5.23l.82-.73c.4,1.24.85,2.55,1.37,4-.78.62-1.55,1.26-2.3,1.87-1.41,1.18-2.87,2.39-4.42,3.45l0,0-.27-.33m3.22,3.23-.13-.12-.24-.2L414,327l-.22-.19-.15-.14-.21-.19-.15-.14-.22-.21L413,326l-.24-.25-.1-.09-.33-.34c1.55-1.08,3-2.28,4.42-3.45.65-.54,1.32-1.09,2-1.63.64,1.63,1.3,3.13,2,4.54-1,.5-1.94,1.05-2.86,1.59s-1.83,1.06-2.77,1.54l-.18-.16-.34-.3m41.81-.87a10.26,10.26,0,0,0-.87-4.89h0l-.06-.09a4.05,4.05,0,0,0-3.11-1.68h-.09a32.74,32.74,0,0,0-4.21.12l-.65,0a21.17,21.17,0,0,1-3.4-.57l-.09-.07-.14-.11-.14-.1-.14-.1-.14-.09-.14-.09-.14-.09-.14-.08-.14-.08-.15-.08-.13-.08-.15-.07-.14-.07-.14-.07-.14-.06-.15-.07-.13-.06-.15-.06-.13-.05-.15-.06-.13-.05-.15-.05-.13,0-.14-.05-.09,0a13,13,0,0,1-2.29-5.3h0a40.86,40.86,0,0,1-.58-7.64.51.51,0,0,0-.2-.37.54.54,0,0,0-.43-.08c-2.93.7-6,1.42-9,2a63.06,63.06,0,0,1-8,1.08,42.39,42.39,0,0,1-8-.42c-2.48-.4-5.15-.81-7.81-1.07h-.06a45.69,45.69,0,0,0-6.72,0h0a54.28,54.28,0,0,0-7.59,1.37.49.49,0,0,0-.38.48c.1,1.95.33,4,1.89,5.49h0a17.44,17.44,0,0,0,2.61,2c.42.28.86.58,1.27.88h0a12.18,12.18,0,0,1,3.59,5.21h0s0,0,0,0a11.71,11.71,0,0,0,4,5.35h0l0,0c1.08.72,2.22,1.37,3.33,2,.47.27,1,.54,1.43.82h0a9.83,9.83,0,0,1,3.66,3.94.51.51,0,0,0,.45.26h0a19.8,19.8,0,0,0,6.76-1.43h0a45,45,0,0,1,6.08-2.25h0a34.59,34.59,0,0,1,10.67-.31l1,.11c2,.22,4.08.45,6.14.53h.8a31.41,31.41,0,0,0,5.38-.45h0a42.44,42.44,0,0,0,7.36-2.35.47.47,0,0,0,.31-.44c0-.22,0-.44,0-.67" transform="translate(-81.46 -10.12)"/><path class="cls-4" d="M225,73.36h-1.48l-2.76,2.2.87,1.09,1-.8a7.75,7.75,0,0,0,.63-.59l0,.89,0,.82v5H225Zm-5.47,4.83h-5.82v1.29h5.82Zm0-2.27h-5.82v1.29h5.82Zm-6.85,3.41-4-1.64,4-1.86V74.42l-5.82,2.91v.84l5.82,2.57Zm-8.22-6H203l-2.76,2.2.87,1.09,1-.8a7.75,7.75,0,0,0,.63-.59l0,.89,0,.82v5h1.82Zm-7.86,4.25,2.69-4.25h-1.95l-1.81,3.08-1.85-3.08h-2l2.66,4.15-2.85,4.41h1.95l2-3.24,2,3.24h2.08Zm-5.62.58h-5.82v1.29H191Zm0-2.27h-5.82v1.29H191Zm-6.85,3.41-4-1.64,4-1.86V74.42l-5.82,2.91v.84l5.82,2.57Zm-10.68-4a1,1,0,0,1,1.83,0,9.22,9.22,0,0,1,0,4.51,1,1,0,0,1-.91.69.94.94,0,0,1-.92-.68,9.59,9.59,0,0,1,0-4.52m3.16-1a2.84,2.84,0,0,0-4.5,0,6,6,0,0,0-.73,3.34,5.91,5.91,0,0,0,.75,3.29,2.86,2.86,0,0,0,4.5,0,5.93,5.93,0,0,0,.74-3.32,6,6,0,0,0-.76-3.29" transform="translate(-81.46 -10.12)"/><path class="cls-4" d="M216.37,65.94a.88.88,0,0,1,.39-.81,2.08,2.08,0,0,1,1.11-.24v-1.4a2.1,2.1,0,0,1-1.14-.24.84.84,0,0,1-.36-.74V60.59a1.67,1.67,0,0,0-.24-1,1.36,1.36,0,0,0-.79-.5,6.13,6.13,0,0,0-1.53-.15v1.32a1.28,1.28,0,0,1,.8.21.82.82,0,0,1,.21.61v1.75c0,.74.48,1.17,1.37,1.31v.07a1.84,1.84,0,0,0-1,.41,1.06,1.06,0,0,0-.35.82v1.81a.82.82,0,0,1-.21.62,1.3,1.3,0,0,1-.8.21v1.32a6.13,6.13,0,0,0,1.53-.15,1.44,1.44,0,0,0,.79-.49,1.68,1.68,0,0,0,.24-1Zm-4.6,5.47a.51.51,0,0,1-.16-.42V68.62H213v-1h-1.37v-1h-.86l-.39,1-.74.45v.57h.65V71a1.8,1.8,0,0,0,.36,1.22,1.52,1.52,0,0,0,1.17.4,3,3,0,0,0,1.23-.22v-1a2.87,2.87,0,0,1-.84.15.62.62,0,0,1-.42-.13m-3.84-3.64a1.9,1.9,0,0,0-.62.67h-.06l-.2-.83h-1v4.91h1.34V70a1.19,1.19,0,0,1,.36-.92,1.42,1.42,0,0,1,1-.33,1.5,1.5,0,0,1,.4,0l.1-1.26a1.92,1.92,0,0,0-.45,0,1.51,1.51,0,0,0-.85.25m-4.61,2.88a.91.91,0,0,1-.28.71,1,1,0,0,1-.74.27c-.43,0-.65-.19-.65-.56a.66.66,0,0,1,.28-.59,1.63,1.63,0,0,1,.87-.21l.52,0Zm1.33,1.87V69.25a1.59,1.59,0,0,0-.52-1.31,2.33,2.33,0,0,0-1.52-.43,4.07,4.07,0,0,0-1.88.44l.44.91a3.49,3.49,0,0,1,1.39-.36.67.67,0,0,1,.76.75v.22l-.85,0a3.31,3.31,0,0,0-1.65.41,1.33,1.33,0,0,0-.55,1.16,1.55,1.55,0,0,0,.41,1.15,1.5,1.5,0,0,0,1.11.4,2.27,2.27,0,0,0,.94-.16,2,2,0,0,0,.69-.59h0l.26.66Zm-6.31-1.11a.51.51,0,0,1-.16-.42V68.62h1.37v-1h-1.37v-1h-.86l-.39,1-.73.45v.57h.64V71a1.8,1.8,0,0,0,.36,1.22,1.52,1.52,0,0,0,1.17.4,3.06,3.06,0,0,0,1.24-.22v-1a3,3,0,0,1-.85.15.62.62,0,0,1-.42-.13m-2.82-1a1.36,1.36,0,0,0-.4-.47,4,4,0,0,0-.84-.43,7.51,7.51,0,0,1-.84-.39.38.38,0,0,1-.19-.32c0-.21.2-.32.59-.32a2.45,2.45,0,0,1,.66.1l.69.26.4-1a4,4,0,0,0-1.72-.39,2.45,2.45,0,0,0-1.44.36,1.16,1.16,0,0,0-.51,1,1.49,1.49,0,0,0,.12.64,1.23,1.23,0,0,0,.39.47,4,4,0,0,0,.83.44l.63.29a1.67,1.67,0,0,1,.34.22.39.39,0,0,1,.09.26c0,.28-.24.42-.73.42a3.38,3.38,0,0,1-.82-.12,4.59,4.59,0,0,1-.84-.29v1.11a3.68,3.68,0,0,0,.71.21,4.74,4.74,0,0,0,.91.07,2.61,2.61,0,0,0,1.57-.39,1.37,1.37,0,0,0,.53-1.15,1.47,1.47,0,0,0-.13-.63m-10.88-2.92h2l1.39-2.24,1.37,2.24h2l-2.24-3.34L191.36,61h-2l-1.28,2.09L186.77,61h-2l2.11,3.21Zm-3.11.27a1.4,1.4,0,0,0,.57,1.27,4,4,0,0,0,2,.36V68.1a1.31,1.31,0,0,1-.81-.22.82.82,0,0,1-.21-.61v-1.8c0-.69-.46-1.11-1.37-1.24v-.07c.89-.14,1.34-.57,1.37-1.31V61.1a.78.78,0,0,1,.22-.6,1.19,1.19,0,0,1,.8-.22V59a4,4,0,0,0-2,.36,1.4,1.4,0,0,0-.57,1.27V62.5a.86.86,0,0,1-.38.74,2,2,0,0,1-1.12.25v1.4a2,2,0,0,1,1.12.27.91.91,0,0,1,.38.78Z" transform="translate(-81.46 -10.12)"/></g><polygon class="cls-3" points="261.74 301.76 198.14 267.93 133.38 303.88 196.99 337.72 261.74 301.76"/><text class="cls-6" transform="translate(159.8 301.02)">Termination </text><text class="cls-6" transform="translate(158.5 315.42)">criteria met?</text><line class="cls-8" x1="154.67" y1="60.98" x2="218.42" y2="60.98"/><polygon class="cls-9" points="225.34 60.98 214.62 57.08 214.62 64.88 225.34 60.98"/><line class="cls-8" x1="221.7" y1="281.85" x2="244.87" y2="238.28"/><polygon class="cls-9" points="248.12 232.16 239.65 239.8 246.53 243.46 248.12 232.16"/><g class="cls-2"><path class="cls-8" d="M300.37,78.79c-31.58,9.06-51.8,27.32-69.48,54.1" transform="translate(-81.46 -10.12)"/><polygon class="cls-9" points="225.57 66.75 214.19 65.96 216.34 73.46 225.57 66.75"/></g><path class="cls-10" d="M344.7,71.6" transform="translate(-81.46 -10.12)"/><path class="cls-8" d="M455,127.51c-17.71-27-41-41.61-72.81-50.69" transform="translate(-81.46 -10.12)"/><polygon class="cls-9" points="377.32 123.19 374.71 112.08 368.18 116.35 377.32 123.19"/><path class="cls-8" d="M455.06,288.11C474,264.71,481,240.31,481,207.87c0-1,0-2.06,0-3.08" transform="translate(-81.46 -10.12)"/><polygon class="cls-9" points="369.25 283.38 379.03 277.5 372.96 272.59 369.25 283.38"/><path class="cls-8" d="M304,338.13c14.72,5.44,24.14,6,40.75,6a136,136,0,0,0,44.69-7.5" transform="translate(-81.46 -10.12)"/><polygon class="cls-9" points="216 325.61 224.7 332.99 227.41 325.67 216 325.61"/><path class="cls-8" d="M208.05,211.53c-1.56,35.27,13.67,63.48,35.49,87.65" transform="translate(-81.46 -10.12)"/><polygon class="cls-9" points="126.9 194.49 122.53 205.03 130.33 205.37 126.9 194.49"/><text class="cls-11" transform="translate(124.84 14.57)">Automated optimization loop</text></svg>